<svg width="384" height="512" viewBox="0 0 384 512" fill="none" xmlns="http://www.w3.org/2000/svg">
<g clip-path="url(#clip0_208_2)">
<path d="M64 0C28.7 0 0 28.7 0 64V448C0 483.3 28.7 512 64 512H320C355.3 512 384 483.3 384 448V160H256C238.3 160 224 145.7 224 128V0H64ZM256 0V128H384L256 0ZM216 232V334.1L247 303.1C256.4 293.7 271.6 293.7 280.9 303.1C290.2 312.5 290.3 327.7 280.9 337L208.9 409C199.5 418.4 184.3 418.4 175 409L103 337C93.6 327.6 93.6 312.4 103 303.1C112.4 293.8 127.6 293.7 136.9 303.1L167.9 334.1V232C167.9 218.7 178.6 208 191.9 208C205.2 208 215.9 218.7 215.9 232H216Z" fill="white"/>
</g>
<defs>
<clipPath id="clip0_208_2">
<rect width="384" height="512" fill="white"/>
</clipPath>
</defs>
</svg>
